# xmcd
#
# Track frame offsets:
#	150
#	14557
#	37223
#	75455
#	99680
#	145482
#	171090
#	191179
#	213853
#	226711
#	260541
#
# Disc length: 3749 seconds
#
# Revision: 1
# Processed by: cddbd v1.5.1PL2 Copyright (c) Steve Scherf et al.
# Submitted via: EasyCDDAExtractor 6.2.0.3
#
DISCID=980ea30b
DTITLE=tony vega band - then and now
DYEAR=2006
DGENRE=Blues
TTITLE0=Dear Sweet Goodness
TTITLE1=Jet Airliner
TTITLE2=Frisco
TTITLE3=Wild Rose
TTITLE4=Five Minutes
TTITLE5=Devil's Daughter
TTITLE6=Love Her with a Feeling
TTITLE7=Fly
TTITLE8=Hand To Hand
TTITLE9=Silverbelly
TTITLE10=Travelling Riverside Blues
EXTD=
EXTT0=
EXTT1=
EXTT2=
EXTT3=
EXTT4=
EXTT5=
EXTT6=
EXTT7=
EXTT8=
EXTT9=
EXTT10=
PLAYORDER=
